<?xml version="1.0" encoding="UTF-8"?>
<svg id="Layer_2" data-name="Layer 2" xmlns="http://www.w3.org/2000/svg" viewBox="4 0 210 64.37">
  <defs>
    <style>
      .cls-1 {
        fill: #ffffff;
      }
    </style>
  </defs>
  <g id="Layer_1-2" data-name="Layer 1">
    <g>
      <path class="cls-1" d="M.8,64.37c-.53,0-.8-.41-.8-.78s.27-.76.8-.76c.57,0,.98-.28,1.26-.82.5-.95.75-2.44.75-4.49V25.32c0-3.54-.66-5.31-2.01-5.31-.53,0-.8-.41-.8-.78s.27-.76.8-.76h11.71c.55,0,.8.39.8.76s-.25.78-.8.78c-1.1,0-1.64,1.23-1.85,2.85-.11.82-.16,1.64-.16,2.46v32.19c0,1.62.18,3.39.75,4.49.3.54.71.82,1.26.82s.8.39.8.76-.25.78-.8.78H.8Z"/>
      <path class="cls-1" d="M51.71,62.16c0-.97.25-2.12.55-3.41.43-1.75.87-3.85.87-6.29v-24.42c0-1.86-.27-3.35-.84-4.49-.57-1.15-1.28-1.71-2.15-1.71-1.48,0-3.26,1.81-4.98,6.2l-10.84,28.28c-.98,2.61-2.88,5.23-5.43,6.83-1.28.8-2.69,1.21-4.25,1.21-.32,0-.64-.02-.98-.06-3.22-.45-5.07-2.61-5.87-5.4-.41-1.38-.62-2.74-.62-4.11v-24.42c0-2.44-.43-4.54-.87-6.29-.3-1.3-.55-2.42-.55-3.39,0-1.49,1.12-2.23,2.24-2.23s2.21.73,2.21,2.23c0,.97-.25,2.1-.55,3.39-.43,1.75-.87,3.85-.87,6.29v24.42c0,1.86.27,3.35.84,4.49.57,1.15,1.28,1.73,2.15,1.73,1.48,0,3.26-1.84,4.98-6.22l10.84-28.28c1-2.61,2.9-5.21,5.46-6.83,1.28-.8,2.69-1.21,4.22-1.21.32,0,.64.02.98.06,3.22.45,5.07,2.61,5.89,5.38.39,1.4.59,2.77.59,4.13v24.42c0,2.44.43,4.54.87,6.29.3,1.3.55,2.44.55,3.41,0,1.47-1.12,2.2-2.21,2.2s-2.24-.73-2.24-2.2Z"/>
      <path class="cls-1" d="M79.98,61.02c-3.4-2.23-5.66-5.57-5.66-10,0-2.27.57-4.28,1.69-6.07,1.12-1.79,2.6-3.26,4.43-4.45v-15.17c0-1.64-.18-3.39-.75-4.49-.3-.54-.71-.82-1.28-.82-.53,0-.78-.41-.78-.78s.25-.76.78-.76h15.32c6.76,0,11.98,2.68,15.57,6.96,3.56,4.28,5.43,9.92,5.43,15.79-.02,6.31-2.05,12.01-5.96,16.27-3.9,4.26-9.56,6.87-16.85,6.87-4.18,0-8.54-1.1-11.94-3.35ZM97.62,60.52c2.08-1.36,3.81-3.15,5.23-5.42,1.42-2.27,2.49-4.8,3.2-7.58.71-2.79,1.07-5.57,1.07-8.4,0-4.93-1.12-9.68-3.4-13.27-2.28-3.59-5.73-5.83-10.46-5.83-2.31,0-3.74.39-4.36,1.15-.55.67-.82,1.88-.82,3.63v13.01c.66-.06,1.32-.11,2.01-.11,2.51,0,4.93.5,7.28,1.51,2.35,1.02,4.31,2.48,5.91,4.41.52.71.8,1.34.8,1.9,0,1.21-1.1,2.01-2.26,2.01-.89,0-1.78-.5-2.24-1.62-1.53-4.13-4.41-6.59-9.45-6.7-7.69,0-12.44,6.59-12.44,12.73,0,2.61.89,5.14,2.74,7.11v-12.88c1.55-2.83,4.18-4.95,7.65-5.62v17.54c0,3,.59,4.45,2.35,4.54,2.72-.04,5.11-.73,7.19-2.1Z"/>
      <path class="cls-1" d="M143.85,64.37c-.53,0-.78-.41-.78-.78s.25-.76.78-.76c1.12,0,1.67-1.23,1.87-2.87.11-.82.16-1.64.16-2.44v-7.89c0-2.68-.62-5.51-1.83-8.49-1.23-2.96-2.94-5.57-5.16-7.8-2.21-2.23-4.84-3.65-7.88-4.3-3.65,4.19-6.69,9.2-9.11,15.06-.34-.67-.62-1.4-.8-2.16,2.03-4.73,4.7-9.1,8.01-13.14l-.5-.02c-6.12,0-9.22,5.27-9.22,10.46s3.01,10.26,9.13,10.26c2.31,0,4.15-.69,5.5-2.07,1.35-1.38,2.03-3.18,2.03-5.36,0-1.62,1.19-2.4,2.35-2.4s2.21.73,2.21,2.14c0,.37-.07.76-.23,1.21-.91,2.42-2.44,4.36-4.61,5.81-2.17,1.47-4.59,2.2-7.26,2.2-3.1,0-5.91-1.04-8.13-2.83-.68,2.42-1.03,4.6-1.03,6.52,0,2.44.48,4.6,1.05,6.68.07.28.11.52.11.73,0,.69-.25,1.23-.73,1.62-.5.41-1.05.6-1.62.6-1.12,0-2.21-.8-2.21-2.55v-.3c.32-4.52,1.37-9.36,3.13-14.52-1.94-2.1-3.13-4.84-3.13-7.84,0-2.27.57-4.3,1.73-6.09,1.17-1.79,2.69-3.2,4.61-4.23,1.92-1.04,4.02-1.56,6.3-1.56.59,0,1.19.04,1.76.11,2.44-2.7,5.14-4.86,8.06-6.46,2.92-1.58,6.03-2.4,9.31-2.44,1.71,0,3.67.41,4.88,1.53.62.56.91,1.34.91,2.33v35.18c0,1.62.18,3.39.75,4.49.3.54.71.82,1.25.82s.8.39.8.76-.25.78-.8.78h-11.71ZM145.88,28.02c0-4.21-1.37-6.27-3.83-6.27-1.44,0-3.22.69-5.34,2.07-1.57,1.1-3.08,2.4-4.5,3.89,3.24.89,6.03,2.59,8.38,5.1,2.33,2.53,4.09,5.38,5.3,8.58v-13.37ZM148.44,9.66c-.52-.5-1.16-.73-1.73-.73s-1.19.22-1.74.73l-4.7,4.3c-1.3,1.19-.84,2.44.43,2.44.32,0,.75-.09,1.16-.3l4.84-2.48,4.84,2.48c.41.22.84.3,1.16.3,1.26,0,1.71-1.23.41-2.44l-4.68-4.3ZM156.18,1.6c.8-1.17,1.9-1.6,2.92-1.6,2.47,0,4.45,2.94,1.12,5.16l-6.35,4.26c-.41.28-.8.41-1.19.41-.96,0-1.53-1.06-.68-2.12l4.18-6.11Z"/>
      <path class="cls-1" d="M175.89,64.37c-8.56,0-18.56-2.64-18.56-12.38,0-6.85,4.61-11.21,8.81-15.15,3.54-3.26,6.71-6.33,6.71-10.26,0-1.81-.68-3.37-2.03-4.65-1.35-1.27-2.99-1.92-4.91-1.92-2.46,0-4.59,1.19-5.84,3-.75,1.19-1.12,2.27-1.12,3.26,0,1.19.46,2.14,1.39,2.9.91.76,2.12,1.15,3.61,1.15l.78-.02c1.62,0,2.47,1.12,2.47,2.23,0,1.04-.75,2.07-2.33,2.07-.32,0-.68-.04-1.07-.15-1.89-.5-3.42-1.45-4.63-2.87-1.21-1.43-1.83-3.09-1.83-4.99,0-3,1.67-5.55,4.27-7.02,1.3-.71,2.74-1.08,4.31-1.08,3.17,0,5.87,1.58,7.42,4.02.75,1.23,1.14,2.59,1.14,4.08,0,3.82-1.94,7.02-4.13,10.44-1.74,2.68-3.45,5.62-4.52,9.12-.55,1.75-.82,3.72-.82,5.86.05,6.22,4.27,10.85,11.92,10.85h3.38c1.89,0,3.54-.65,4.91-1.94,1.37-1.27,2.05-2.83,2.05-4.62v-30.94c0-1.62-.18-3.39-.75-4.49-.3-.54-.71-.82-1.28-.82-.52,0-.8-.41-.8-.78s.27-.76.8-.76h11.71c.55,0,.8.39.8.76s-.25.78-.8.78c-1.1,0-1.64,1.23-1.85,2.87-.11.82-.16,1.64-.16,2.44v26.68c0,2.27-.59,4.32-1.76,6.2-1.19,1.88-2.76,3.37-4.75,4.47-1.99,1.12-4.15,1.69-6.55,1.69h-5.98Z"/>
    </g>
  </g>
</svg>